{"title":"The Grudge 3[2009]DvDrip-LW","uid":4929220,"size":734201481,"categoryP":"video","categoryS":"movies","magnet":"?xt=urn:btih:100513773184bd12bb56e42153a9cabe6f05b3da&amp;dn=The+Grudge+3%5B2009%5DDvDrip-LW&amp;tr=udp%3A%2F%2Ftracker.openbittorrent.com%3A80&amp;tr=udp%3A%2F%2Fopen.demonii.com%3A1337&amp;tr=udp%3A%2F%2Ftracker.coppersurfer.tk%3A6969&amp;tr=udp%3A%2F%2Fexodus.desync.com%3A6969","seeders":1,"leechers":1,"uploader":"XoLWoX","files":-1,"time":1243972204,"description":"-------------------------------------------------\nF I L E - I N F O\n-------------------------------------------------\nTITLE......[ The Grudge 3\nYEAR.......[ 2009\nGENRE......[ Horror / Thriller\nRUNTIME....[ 01:30:17\nSTORE DATE.[ 2009 (USA)\nIMDB RATE..[ 4.6/10 (904 Votes)\nIMDB URL...[ http://www.imdb.com/title/tt1053859/\n-------------------------------------------------\nFormat                           : AVI\nFormat/Info                      : Audio Video Interleave\nFile size                        : 700 MiB\nDuration                         : 1h 30mn\nOverall bit rate                 : 1 084 Kbps\nWriting application              : Nandub v1.0rc2\nWriting library                  : Nandub build 1852/release\nSOURCE                           : DVD\n-------------------------------------------------\nV I D E O\n-------------------------------------------------\nFormat                           : MPEG-4 Visual\nFormat profile                   : Streaming Video@L1\nFormat settings, BVOP            : Yes\nFormat settings, QPel            : No\nFormat settings, GMC             : No warppoints\nFormat settings, Matrix          : Default (H.263)\nCodec ID                         : XVID\nCodec ID/Hint                    : XviD\nDuration                         : 1h 30mn\nBit rate                         : 911 Kbps\nWidth                            : 640 pixels\nHeight                           : 336 pixels\nDisplay aspect ratio             : 1.905\nFrame rate                       : 23.976 fps\nResolution                       : 24 bits\nColorimetry                      : 4:2:0\nScan type                        : Progressive\nBits/(Pixel*Frame)               : 0.177\nStream size                      : 588 MiB (84%)\nWriting library                  : XviD 0039 build=2005.09.16 (UTC 2005-09-16)\n-------------------------------------------------\nA U D I O\n-------------------------------------------------\nFormat                           : MPEG Audio\nFormat version                   : Version 1\nFormat profile                   : Layer 3\nCodec ID                         : 55\nCodec ID/Hint                    : MP3\nDuration                         : 1h 30mn\nBit rate mode                    : Variable\nBit rate                         : 160 Kbps\nChannel(s)                       : 2 channels\nSampling rate                    : 48.0 KHz\nResolution                       : 16 bits\nStream size                      : 104 MiB (15%)\nAlignment                        : Aligned on interleaves\nInterleave, duration             : 24 ms (0.58 video frame)\nInterleave, preload duration     : 200 ms\nWriting library                  : LAME3.90.\nEncoding settings                : ABR\n-------------------------------------------------\nP L O T\n-------------------------------------------------\nFearful of meeting a gruesome death, young Jake \n(Matthew Knight) tries to convince his psychiatrist \n(Shawnee Smith) that an evil curse led to the \nslaughter of his entire family. Meanwhile, a young \nwoman from Japan (Emi Ikehata) arrives in Chicago \nand attempts to stop the curse for good. This \nthird installment of the popular Grudge horror \nmovie series also stars Marina Sirtis, Beau \nMirchoff and Johanna E. Braddy. \n\nStarring: Shawnee Smith, Marina Sirtis\n\nDirector: Toby Wilkins\n-------------------------------------------------","torrent":{"xt":"urn:btih:100513773184bd12bb56e42153a9cabe6f05b3da","amp;dn":"The+Grudge+3%5B2009%5DDvDrip-LW","amp;tr":["udp%3A%2F%2Ftracker.openbittorrent.com%3A80","udp%3A%2F%2Fopen.demonii.com%3A1337","udp%3A%2F%2Ftracker.coppersurfer.tk%3A6969","udp%3A%2F%2Fexodus.desync.com%3A6969"],"infoHash":"100513773184bd12bb56e42153a9cabe6f05b3da","infoHashBuffer":{"type":"Buffer","data":[16,5,19,119,49,132,189,18,187,86,228,33,83,169,202,190,111,5,179,218]},"announce":[],"urlList":[]}}